<svg width="16" height="16" viewBox="0 0 16 16" fill="none" xmlns="http://www.w3.org/2000/svg">
<path opacity="0.5" d="M1.35002 3.25V11.8H14.65V3.25H1.35002ZM1.35002 2.3H14.65C14.902 2.3 15.1436 2.40009 15.3218 2.57825C15.4999 2.75641 15.6 2.99804 15.6 3.25V12.75C15.6 13.002 15.4999 13.2436 15.3218 13.4218C15.1436 13.5999 14.902 13.7 14.65 13.7H1.35002C1.09807 13.7 0.856433 13.5999 0.678273 13.4218C0.500113 13.2436 0.400024 13.002 0.400024 12.75V3.25C0.400024 2.99804 0.500113 2.75641 0.678273 2.57825C0.856433 2.40009 1.09807 2.3 1.35002 2.3Z" fill="white"/>
<path opacity="0.5" fill-rule="evenodd" clip-rule="evenodd" d="M9.90002 8H13.7V10.85H9.90002V8Z" fill="white"/>
</svg>
